<svg id="Layer_1" data-name="Layer 1" xmlns="http://www.w3.org/2000/svg" viewBox="0 0 111.03 81.87"><path d="M352,360.57a6.9,6.9,0,0,0-6.9-6.9H262a6.9,6.9,0,0,0-6.91,6.9v52.48H352Zm-8.12,48.67h-80V361.48h80Z" transform="translate(-247.73 -353.67)" fill="#fff"/><polygon points="104.25 58.38 7.4 58.38 0.52 67.67 111.03 67.67 104.25 58.38" fill="#fff"/><path d="M358.76,426.09v3.11a6.34,6.34,0,0,1-6.34,6.34H254.08a6.34,6.34,0,0,1-6.35-6.34v-3.11H295v2.32h17.33v-2.32Z" transform="translate(-247.73 -353.67)" fill="#fff"/><path d="M304.21,391.78l-4.07,6.58c-3.15-8.37-6-16-9.42-25l24.67,9.3-6.05,4.16,6.43,7.22-4.25,4.5Z" transform="translate(-247.73 -353.67)" fill="#fff"/></svg>