<?xml version="1.0" encoding="UTF-8"?>
<svg width="74px" height="74px" viewBox="0 0 74 74" version="1.1" xmlns="http://www.w3.org/2000/svg" xmlns:xlink="http://www.w3.org/1999/xlink">
    <title>Shape</title>
    <g id="Page-1" stroke="none" stroke-width="1" fill="none" fill-rule="evenodd">
        <g id="homepage_banner" fill="#FFFFFF" fill-rule="nonzero">
            <path d="M36.73,-1.36400132e-06 C16.4445811,-1.36400132e-06 0,16.4445811 0,36.73 C0,57.0154189 16.4445811,73.46 36.73,73.46 C57.0154189,73.46 73.4600014,57.0154189 73.4600014,36.73 C73.4626535,26.9877851 69.5937488,17.6438241 62.7049624,10.7550376 C55.8161759,3.86625117 46.4722149,-0.00265347009 36.73,-1.36400132e-06 Z M28.83,38.67 C31.2057822,37.4029418 34.1588791,38.2995294 35.4291884,40.6735749 C36.6994977,43.0476204 35.8069534,46.0019419 33.4346491,47.2754999 C31.0623448,48.5490579 28.1068043,47.6605587 26.83,45.29 C26.4413025,44.5677898 26.2385372,43.7601653 26.24,42.94 L26.24,42.53 L16.24,33.08 C15.327451,32.2315631 15.2737721,30.8045978 16.12,29.89 L16.24,29.77 L21.88,24.49 L26.8,19.89 C25.6205062,17.4613229 26.6325488,14.5363013 29.0607736,13.3558765 C31.4889984,12.1754518 34.4144077,13.1863731 35.5957632,15.6141451 C36.7771188,18.0419172 35.767319,20.9677139 33.34,22.15 C32.665685,22.4727562 31.9275776,22.6401973 31.18,22.64 C30.9718836,22.6320711 30.7646453,22.6086732 30.56,22.57 L21.1,31.42 L28.83,38.67 Z M58.83,44.38 L48.74,53.82 L48.74,54.23 C48.74,56.9361953 46.5461953,59.13 43.84,59.13 C41.1338047,59.13 38.94,56.9361953 38.94,54.23 C38.94,51.5238047 41.1338047,49.33 43.84,49.33 L43.84,49.33 C44.6610448,49.3364079 45.4667206,49.5533206 46.18,49.96 L53.92,42.72 L44.46,33.87 C44.2544692,33.9003755 44.0475414,33.9204008 43.84,33.93 C41.1410422,33.8747729 38.9951381,31.6470039 39.0409504,28.9478699 C39.0867627,26.2487359 41.3070328,24.0950739 44.0063102,24.1314709 C46.7055876,24.1678679 48.8669812,26.3806121 48.84,29.08 C48.8376004,29.8231532 48.663035,30.5556431 48.33,31.22 L53.25,35.83 L58.84,41.08 C59.2992691,41.5057858 59.5602941,42.103724 59.5602941,42.73 C59.5602941,43.356276 59.2992691,43.9542142 58.84,44.38 L58.83,44.38 Z" id="Shape"></path>
        </g>
    </g>
</svg>