<svg id="Layer_1" data-name="Layer 1" xmlns="http://www.w3.org/2000/svg" viewBox="0 0 293.46 186.09"><path d="M327.72,327.27c-37.3-37.93-117.45-38-154.81,0-27.66,28.13-20.6,67.56,18.31,89.63L184,461.35l52.44-30.54a131.89,131.89,0,0,0,50-4.29C342.4,410.24,361.5,361.61,327.72,327.27Zm-91.88,92.44-1.82-.22-35.48,20.66,4.79-29.27-3.55-1.83c-20.72-10.65-32.6-26.65-32.6-43.9,0-32.65,43.82-60,95.74-54.76,38.85,3.94,70.54,26.64,70.54,54.76C333.46,398.25,288.36,425.91,235.84,419.71Z" transform="translate(-156.2 -275.26)" fill="#fff"/><path d="M226,388.58a4.48,4.48,0,0,1-3.09-1.22l-22.56-21.1a4.55,4.55,0,0,1,0-6.62l11.28-10.55,11.28-10.55a4.53,4.53,0,0,1,6.19,6.62l-19,17.79,19,17.79a4.53,4.53,0,0,1-3.1,7.84Z" transform="translate(-156.2 -275.26)" fill="#fff"/><path d="M274.66,388.58a4.53,4.53,0,0,1-3.1-7.84l19-17.79-7.74-7.24-11.28-10.55a4.53,4.53,0,0,1,6.19-6.62L289,349.09l11.28,10.55a4.55,4.55,0,0,1,0,6.62l-22.56,21.1A4.48,4.48,0,0,1,274.66,388.58Z" transform="translate(-156.2 -275.26)" fill="#fff"/><path d="M240.24,396a4.37,4.37,0,0,1-1.58-.29,4.52,4.52,0,0,1-2.67-5.82l19.78-53.16a4.53,4.53,0,0,1,8.5,3.16l-19.78,53.16A4.54,4.54,0,0,1,240.24,396Z" transform="translate(-156.2 -275.26)" fill="#fff"/><path d="M449.66,343.74c0-37.82-44.62-68.48-99.67-68.48-26.55,0-50.67,7.13-68.53,18.76,30.27,7,60.08,25.56,68.83,55,6.26,21,.25,44-19,62a145.7,145.7,0,0,0,35.66.21l51.21,32.07-8.56-44.7C433.94,386.11,449.66,366.18,449.66,343.74Z" transform="translate(-156.2 -275.26)" fill="#fff"/></svg>