<svg xmlns="http://www.w3.org/2000/svg" xmlns:xlink="http://www.w3.org/1999/xlink" viewBox="0 0 120 120"><defs><radialGradient id="radial-gradient" cx="10.11" cy="-205.11" r="79.57" gradientTransform="translate(52.38 214.67) scale(0.75)" gradientUnits="userSpaceOnUse"><stop offset="0.89" stop-color="#e6e6e6"/><stop offset="1" stop-color="#fff"/></radialGradient><clipPath id="clip-path"><path d="M82.25,44.45V58.22A.7.7,0,0,0,82,57.7a.74.74,0,0,0-.53-.22H75.58a.77.77,0,0,0-.45.14.73.73,0,0,0-.26.39l-.45,1.48H63.32L62.88,58a.81.81,0,0,0-.27-.39.75.75,0,0,0-.45-.14H56.24a.74.74,0,0,0-.53.22.73.73,0,0,0-.21.52V44.45Z" fill="none"/></clipPath><clipPath id="clip-path-2"><polygon points="64.83 46.89 64.83 44.45 72.92 44.45 72.92 49.01 81 49.01 81 69.88 56.74 69.88 56.74 46.89 64.83 46.89" fill="none" clip-rule="evenodd"/></clipPath><clipPath id="clip-path-3"><path d="M30.08,37.39v20a1.09,1.09,0,0,1,1.09-1.09h8.58a1.08,1.08,0,0,1,.65.22,1.1,1.1,0,0,1,.39.56l.64,2.14H57.52l.65-2.14a1,1,0,0,1,.39-.56,1,1,0,0,1,.65-.22h8.58a1.11,1.11,0,0,1,.77.32,1.08,1.08,0,0,1,.31.77v-20Z" fill="none"/></clipPath><clipPath id="clip-path-4"><polygon points="55.34 40.93 55.34 37.39 43.61 37.39 43.61 44.01 31.89 44.01 31.89 74.26 67.07 74.26 67.07 40.93 55.34 40.93" fill="none" clip-rule="evenodd"/></clipPath></defs><g style="isolation:isolate"><g id="Shadow"><g style="mix-blend-mode:multiply"><circle cx="60" cy="60" r="60" fill="url(#radial-gradient)"/></g></g><g id="BackFill"><circle cx="60.16" cy="60.08" r="54.47" fill="#3175a4"/></g><g id="GraphicsIcons"><polygon points="70.51 94.83 49.73 94.83 52.37 81.98 67.87 81.98 70.51 94.83" fill="#cee2f2"/><polygon points="70.51 94.83 67.87 81.98 52.37 81.98 65.22 94.83 70.51 94.83" fill="#cee2f2" style="mix-blend-mode:multiply"/><rect x="44.17" y="94.83" width="31.91" height="1.55" fill="#f2f9ff"/><rect x="20.25" y="29.12" width="79.75" height="52.86" rx="1.94" fill="#34495e"/><rect x="24.28" y="33.15" width="71.69" height="44.8" fill="#fff"/><g opacity="0.5"><g clip-path="url(#clip-path)"><rect x="72.92" y="49.01" width="8.09" height="28.88" fill="#34495e"/><path d="M74.84,73.35A2.12,2.12,0,1,0,77,71.24,2.12,2.12,0,0,0,74.84,73.35Z" fill="#fff" fill-rule="evenodd"/><path d="M75.23,73.35A1.73,1.73,0,1,0,77,71.62,1.73,1.73,0,0,0,75.23,73.35Z" fill="#283a4d" fill-rule="evenodd"/><path d="M74.65,50.84h4.62a.38.38,0,0,1,.38.38v17.2a.38.38,0,0,1-.38.38H74.65a.39.39,0,0,1-.39-.39V51.22a.39.39,0,0,1,.39-.39Z" fill="#fff"/><rect x="74.94" y="56.43" width="4.04" height="0.27" fill="#e1effa"/><rect x="74.94" y="58.05" width="4.04" height="0.27" fill="#e1effa"/><rect x="74.94" y="59.67" width="4.04" height="0.27" fill="#e1effa"/><rect x="74.94" y="61.29" width="4.04" height="0.27" fill="#e1effa"/><polygon points="74.94 63.17 78.98 63.17 78.98 62.9 74.94 62.9 74.94 63.17" fill="#e1effa" fill-rule="evenodd"/><rect x="74.94" y="64.52" width="4.04" height="0.27" fill="#e1effa"/><rect x="74.94" y="51.85" width="4.04" height="3.15" fill="#e1effa"/><rect x="74.94" y="66.23" width="4.04" height="1.57" fill="#e1effa"/><rect x="64.83" y="44.45" width="8.09" height="28.88" fill="#ff8e31"/><path d="M66.75,68.79a2.12,2.12,0,1,0,2.12-2.12A2.11,2.11,0,0,0,66.75,68.79Z" fill="#fff" fill-rule="evenodd"/><path d="M67.14,68.79a1.74,1.74,0,1,0,1.73-1.74A1.74,1.74,0,0,0,67.14,68.79Z" fill="#283a4d" fill-rule="evenodd"/><rect x="66.18" y="46.27" width="5.39" height="17.97" rx="0.39" fill="#fff"/><rect x="66.85" y="51.86" width="4.04" height="0.27" fill="#e1effa"/><rect x="66.85" y="53.48" width="4.04" height="0.27" fill="#e1effa"/><rect x="66.85" y="55.1" width="4.04" height="0.27" fill="#e1effa"/><rect x="66.85" y="56.72" width="4.04" height="0.27" fill="#e1effa"/><rect x="66.85" y="58.33" width="4.04" height="0.27" fill="#e1effa"/><rect x="66.85" y="59.95" width="4.04" height="0.27" fill="#e1effa"/><rect x="66.85" y="47.28" width="4.04" height="3.15" fill="#e1effa"/><rect x="66.85" y="61.66" width="4.04" height="1.57" fill="#e1effa"/><rect x="56.74" y="46.89" width="8.09" height="28.88" fill="#c1d354"/><path d="M58.67,71.23a2.12,2.12,0,1,0,2.11-2.12A2.12,2.12,0,0,0,58.67,71.23Z" fill="#fff" fill-rule="evenodd"/><path d="M59.05,71.23a1.74,1.74,0,1,0,1.73-1.73A1.73,1.73,0,0,0,59.05,71.23Z" fill="#283a4d" fill-rule="evenodd"/><path d="M58.47,48.71H63.1a.39.39,0,0,1,.39.39V66.3a.38.38,0,0,1-.38.38H58.47a.38.38,0,0,1-.38-.38V49.1a.39.39,0,0,1,.39-.39Z" fill="#fff"/><rect x="58.76" y="54.31" width="4.04" height="0.27" fill="#e1effa"/><rect x="58.76" y="55.93" width="4.04" height="0.27" fill="#e1effa"/><rect x="58.76" y="57.54" width="4.04" height="0.27" fill="#e1effa"/><rect x="58.76" y="59.16" width="4.04" height="0.27" fill="#e1effa"/><rect x="58.76" y="60.78" width="4.04" height="0.27" fill="#e1effa"/><rect x="58.76" y="62.4" width="4.04" height="0.27" fill="#e1effa"/><rect x="58.76" y="49.72" width="4.04" height="3.15" fill="#e1effa"/><rect x="58.76" y="64.1" width="4.04" height="1.57" fill="#e1effa"/></g><g clip-path="url(#clip-path-2)"><path d="M55.71,57.32a.79.79,0,0,1,.53-.22h5.92a.76.76,0,0,1,.45.15.81.81,0,0,1,.27.39l.44,1.48h11.1l.45-1.48a.73.73,0,0,1,.26-.39.78.78,0,0,1,.45-.15H81.5a.79.79,0,0,1,.53.22.74.74,0,0,1,.22.53v10.9a.71.71,0,0,1-.22.53.74.74,0,0,1-.53.22H56.24a.73.73,0,0,1-.74-.75V57.85A.77.77,0,0,1,55.71,57.32Z" fill="#cdd3da" style="mix-blend-mode:multiply"/></g><path d="M55.71,57.7a.74.74,0,0,1,.53-.22h5.92a.75.75,0,0,1,.45.14.81.81,0,0,1,.27.39l.44,1.48h11.1L74.87,58a.73.73,0,0,1,.26-.39.77.77,0,0,1,.45-.14H81.5a.74.74,0,0,1,.53.22.7.7,0,0,1,.22.52V69.13a.74.74,0,0,1-.22.53.79.79,0,0,1-.53.22H56.24a.79.79,0,0,1-.53-.22.77.77,0,0,1-.21-.53V58.22A.73.73,0,0,1,55.71,57.7Z" fill="#e1effa"/><rect x="63.52" y="64.04" width="10.7" height="1.28" rx="0.47" fill="#34495e"/></g><g clip-path="url(#clip-path-3)"><rect x="31.89" y="44.01" width="11.73" height="41.88" fill="#34495e"/><path d="M40.82,79.3a3.07,3.07,0,1,1-3.07-3.07A3.09,3.09,0,0,1,40.82,79.3Z" fill="#fff" fill-rule="evenodd"/><path d="M40.26,79.3a2.51,2.51,0,1,1-2.51-2.51A2.5,2.5,0,0,1,40.26,79.3Z" fill="#283a4d" fill-rule="evenodd"/><rect x="33.84" y="46.66" width="7.82" height="26.06" rx="0.56" fill="#fff"/><rect x="34.82" y="54.77" width="5.86" height="0.39" fill="#e1effa"/><rect x="34.82" y="57.11" width="5.86" height="0.39" fill="#e1effa"/><rect x="34.82" y="59.46" width="5.86" height="0.39" fill="#e1effa"/><rect x="34.82" y="61.8" width="5.86" height="0.39" fill="#e1effa"/><polygon points="40.68 64.54 34.82 64.54 34.82 64.15 40.68 64.15 40.68 64.54" fill="#e1effa" fill-rule="evenodd"/><rect x="34.82" y="66.49" width="5.86" height="0.39" fill="#e1effa"/><rect x="34.82" y="48.12" width="5.86" height="4.56" fill="#e1effa"/><rect x="34.82" y="68.97" width="5.86" height="2.28" fill="#e1effa"/><rect x="43.61" y="37.39" width="11.73" height="41.88" fill="#ff8e31"/><path d="M52.55,72.68a3.07,3.07,0,1,1-3.07-3.07A3.07,3.07,0,0,1,52.55,72.68Z" fill="#fff" fill-rule="evenodd"/><path d="M52,72.68a2.52,2.52,0,1,1-2.51-2.51A2.51,2.51,0,0,1,52,72.68Z" fill="#283a4d" fill-rule="evenodd"/><rect x="45.57" y="40.03" width="7.82" height="26.06" rx="0.56" fill="#fff"/><rect x="46.55" y="48.14" width="5.86" height="0.39" fill="#e1effa"/><rect x="46.55" y="50.49" width="5.86" height="0.39" fill="#e1effa"/><rect x="46.55" y="52.83" width="5.86" height="0.39" fill="#e1effa"/><rect x="46.55" y="55.18" width="5.86" height="0.39" fill="#e1effa"/><rect x="46.55" y="57.52" width="5.86" height="0.39" fill="#e1effa"/><rect x="46.55" y="59.87" width="5.86" height="0.39" fill="#e1effa"/><rect x="46.55" y="41.5" width="5.86" height="4.56" fill="#e1effa"/><rect x="46.55" y="62.35" width="5.86" height="2.28" fill="#e1effa"/><rect x="55.34" y="40.93" width="11.73" height="41.88" fill="#c1d354"/><path d="M64.28,76.22a3.08,3.08,0,1,1-3.08-3.07A3.07,3.07,0,0,1,64.28,76.22Z" fill="#fff" fill-rule="evenodd"/><path d="M63.72,76.22a2.52,2.52,0,1,1-2.52-2.51A2.52,2.52,0,0,1,63.72,76.22Z" fill="#283a4d" fill-rule="evenodd"/><rect x="57.3" y="43.58" width="7.82" height="26.06" rx="0.56" fill="#fff"/><rect x="58.27" y="51.69" width="5.86" height="0.39" fill="#e1effa"/><rect x="58.27" y="54.03" width="5.86" height="0.39" fill="#e1effa"/><rect x="58.27" y="56.38" width="5.86" height="0.39" fill="#e1effa"/><rect x="58.27" y="58.72" width="5.86" height="0.39" fill="#e1effa"/><rect x="58.27" y="61.07" width="5.86" height="0.39" fill="#e1effa"/><rect x="58.27" y="63.41" width="5.86" height="0.39" fill="#e1effa"/><rect x="58.27" y="45.04" width="5.86" height="4.56" fill="#e1effa"/><rect x="58.27" y="65.89" width="5.86" height="2.28" fill="#e1effa"/></g><g clip-path="url(#clip-path-4)"><path d="M68.56,56.06a1.07,1.07,0,0,0-.77-.32H59.21a1.1,1.1,0,0,0-.65.21,1.07,1.07,0,0,0-.39.56l-.65,2.15H41.43l-.64-2.15A1.19,1.19,0,0,0,40.4,56a1.14,1.14,0,0,0-.65-.21H31.17a1.05,1.05,0,0,0-.77.32,1.09,1.09,0,0,0-.32.76V72.63a1.09,1.09,0,0,0,1.09,1.09H67.79a1.11,1.11,0,0,0,.77-.32,1.08,1.08,0,0,0,.31-.77V56.82A1.07,1.07,0,0,0,68.56,56.06Z" fill="#cdd3da" style="mix-blend-mode:multiply"/></g><path d="M68.56,56.6a1.11,1.11,0,0,0-.77-.32H59.21a1,1,0,0,0-.65.22,1,1,0,0,0-.39.56l-.65,2.14H41.43l-.64-2.14a1.1,1.1,0,0,0-.39-.56,1.08,1.08,0,0,0-.65-.22H31.17a1.09,1.09,0,0,0-1.09,1.09V73.18a1.09,1.09,0,0,0,.32.76,1.05,1.05,0,0,0,.77.32H67.79a1.08,1.08,0,0,0,1.08-1.08V57.37A1.08,1.08,0,0,0,68.56,56.6Z" fill="#e1effa"/><rect x="41.72" y="65.8" width="15.52" height="1.86" rx="0.68" fill="#34495e"/><polygon points="91.25 67.44 91.25 66.65 90.86 66.65 90.86 66.25 90.47 66.25 90.47 65.86 90.07 65.86 90.07 65.46 89.67 65.46 89.67 65.07 89.28 65.07 89.28 64.67 88.89 64.67 88.89 64.28 88.49 64.28 88.49 63.88 88.09 63.88 88.09 63.49 87.69 63.49 87.69 63.09 87.3 63.09 87.3 62.7 86.9 62.7 86.9 62.3 86.51 62.3 86.51 69.03 87.3 69.03 87.3 68.63 87.69 68.63 87.69 68.23 88.09 68.23 88.09 67.83 88.49 67.83 88.49 68.63 88.89 68.63 88.89 69.42 89.28 69.42 89.28 69.81 90.07 69.81 90.07 69.42 90.47 69.42 90.47 68.63 90.07 68.63 90.07 67.83 89.67 67.83 89.67 67.44 91.25 67.44" fill="#34495e"/></g></g></svg>