<svg id="Layer_1" data-name="Layer 1" xmlns="http://www.w3.org/2000/svg" viewBox="0 0 295.45 286.36"><path d="M461,523.07,402.07,470.9a62.61,62.61,0,1,0-14.67,14.67l52.72,59.54c3.31,3.31,11.93-5.22,14.38-7.66S464.52,526.6,461,523.07ZM383.16,466.7a45.38,45.38,0,1,1,0-64.18A45.39,45.39,0,0,1,383.16,466.7Z" transform="translate(-166.47 -259.5)" fill="#fff"/><path d="M298.38,487.3a75.51,75.51,0,0,1-6.13-6.94,8.68,8.68,0,0,1-4.88,1.91c-4.73,0-12.78-6.91-19.9-26.38a151.45,151.45,0,0,1-5-16.82,141.49,141.49,0,0,1,14.16-1.77c0-.89-.05-1.79-.05-2.69a75.46,75.46,0,0,1,1.82-16.51,158.91,158.91,0,0,0-19.49,2.28,267.11,267.11,0,0,1-2.64-30.45h35.18a75.17,75.17,0,0,1,21-19H256.25a267.09,267.09,0,0,1,2.64-30.46,161.56,161.56,0,0,0,57,0,265.3,265.3,0,0,1,2.51,27.19,73.72,73.72,0,0,1,18.74-6.22c-.53-8.82-1.44-17.39-2.7-25.58a122.79,122.79,0,0,0,31.65-15.21c.84-.57,1.65-1.14,2.46-1.72a101.36,101.36,0,0,1,20.22,51.39,74.77,74.77,0,0,1,15,11.64c1.53,1.52,3,3.11,4.35,4.74.11-2.07.16-4.16.16-6.25a120.48,120.48,0,0,0-25.46-74.25,124.28,124.28,0,0,0-9.95-11.25c-1-1-2-1.93-3-2.87a120.48,120.48,0,0,0-82-32.53h-1.1a120.43,120.43,0,0,0-82,32.53c-1,.94-2,1.9-3,2.87a124.28,124.28,0,0,0-9.95,11.25,120.82,120.82,0,0,0,0,148.49,124.28,124.28,0,0,0,9.95,11.25c1,1,2,1.93,3,2.87a120.43,120.43,0,0,0,82,32.53h1.1a120.57,120.57,0,0,0,24.94-2.69A75.24,75.24,0,0,1,298.38,487.3Zm57.13-182.54-.18.12A102.77,102.77,0,0,1,330.72,317a170.83,170.83,0,0,0-5.57-18.63,111.47,111.47,0,0,0-6.66-15A101.71,101.71,0,0,1,355.51,304.76Zm-88,.16c7.12-19.47,15.17-26.38,19.9-26.38s12.77,6.91,19.9,26.38a153.62,153.62,0,0,1,5,16.82,144.17,144.17,0,0,1-49.84,0A151.45,151.45,0,0,1,267.47,304.92Zm-61.24,14c.81.58,1.62,1.15,2.45,1.72a123,123,0,0,0,31.66,15.21,289.12,289.12,0,0,0-3.14,35.07H186A101.38,101.38,0,0,1,206.23,318.89Zm0,123a101.35,101.35,0,0,1-20.28-52H237.2A289.14,289.14,0,0,0,240.34,425a123,123,0,0,0-31.66,15.21C207.85,440.77,207,441.34,206.23,441.92Zm13,14.14.18-.13A102.77,102.77,0,0,1,244,443.81a170.83,170.83,0,0,0,5.57,18.63,109,109,0,0,0,6.66,15A101.83,101.83,0,0,1,219.23,456.06Zm30.36-157.69A170.83,170.83,0,0,0,244,317a102.77,102.77,0,0,1-24.61-12.12l-.18-.12a101.71,101.71,0,0,1,37-21.35A109,109,0,0,0,249.59,298.37Z" transform="translate(-166.47 -259.5)" fill="#fff"/></svg>