<?xml version="1.0" encoding="UTF-8"?>
<svg width="13px" height="12px" viewBox="0 0 13 12" version="1.1" xmlns="http://www.w3.org/2000/svg" xmlns:xlink="http://www.w3.org/1999/xlink">
    <title>Group 4</title>
    <g id="Page-1" stroke="none" stroke-width="1" fill="none" fill-rule="evenodd">
        <g id="Group-4" fill="#3175A4" fill-rule="nonzero">
            <path d="M9.94261872,6.98805486 L9.48013132,6.98805486 C9.41255764,6.98805486 9.35713204,7.01089612 9.31403168,7.05679235 C9.27055169,7.10242143 9.24891292,7.16090039 9.24891292,7.23212237 L9.24891292,9.6727974 C9.24891292,10.0084436 9.13578396,10.2956825 8.90939949,10.5347008 C8.68301502,10.7736658 8.41082217,10.8930548 8.09284626,10.8930548 L2.08096555,10.8930548 C1.76304026,10.8930548 1.49084741,10.7736391 1.26441232,10.5347008 C1.03802785,10.2957092 0.924848268,10.0084704 0.924848268,9.67282411 L0.924848268,3.32693545 C0.924848268,2.99134264 1.03797723,2.70413054 1.26441232,2.46511215 C1.49084741,2.22612049 1.76304026,2.10667808 2.08096555,2.10667808 L7.16782083,2.10667808 C7.23539451,2.10667808 7.29082011,2.08370325 7.33409764,2.03802074 C7.37737516,1.99225808 7.39903923,1.93383255 7.39903923,1.86258386 L7.39903923,1.374342 C7.39903923,1.30328031 7.37740047,1.24472121 7.33409764,1.1990387 C7.29082011,1.15327604 7.23539451,1.13043478 7.16782083,1.13043478 L2.08096555,1.13043478 C1.50777879,1.13043478 1.0176039,1.34527616 0.610491474,1.77493221 C0.203530903,2.20456155 0,2.7219761 0,3.3270156 L0,9.67293097 C0,10.2779438 0.203530903,10.7954385 0.610516782,11.2249342 C1.0176292,11.654617 1.5078041,11.8695652 2.08099086,11.8695652 L8.09284626,11.8695652 C8.66600771,11.8695652 9.15623322,11.654617 9.56326972,11.2249342 C9.97038214,10.7954385 10.173913,10.2779705 10.173913,9.67293097 L10.173913,7.23230937 C10.173913,7.16098053 10.152249,7.10247486 10.108769,7.05679235 C10.0654155,7.01089612 10.0099899,6.98805486 9.94261872,6.98805486 Z" id="Path-Copy-14"></path>
            <path d="M12.8641259,0.145475283 C12.7735432,0.0484738773 12.6661859,0 12.5424046,0 L8.88254247,0 C8.75868601,0 8.65140383,0.0484738773 8.56092126,0.145502109 C8.47036358,0.242503514 8.42502215,0.357424428 8.42502215,0.490157546 C8.42502215,0.622890664 8.47033855,0.737838403 8.56092126,0.834866635 L9.8189394,2.18279989 L5.15846128,7.17638719 C5.11074137,7.22746315 5.08695652,7.28621124 5.08695652,7.35247049 C5.08695652,7.41899801 5.11081648,7.47769244 5.15846128,7.52871475 L5.97335519,8.40175423 C6.021,8.45280337 6.07583033,8.47826087 6.13777108,8.47826087 C6.19971183,8.47826087 6.25454216,8.45283019 6.30216193,8.40175423 L10.9626901,3.40822058 L12.2207834,4.75615383 C12.311291,4.85318206 12.4185731,4.90170959 12.5424546,4.90170959 C12.6663361,4.90170959 12.7736183,4.85320889 12.864176,4.75618065 C12.9547587,4.65917925 13,4.54431199 13,4.41155204 L13,0.490130721 C13,0.3572903 12.9545835,0.242476689 12.8641009,0.145502109 L12.8641259,0.145475283 Z" id="Path-Copy-13"></path>
        </g>
    </g>
</svg>