<svg id="Layer_1" data-name="Layer 1" xmlns="http://www.w3.org/2000/svg" viewBox="0 0 455.14 74.39"><text transform="translate(89.53 58.13)" font-size="60" fill="#fff" font-family="Roboto-Bold, Roboto" font-weight="700" letter-spacing="0.02em">I</text><text transform="translate(108.64 58.13)" font-size="60" fill="#fff" font-family="Roboto-Bold, Roboto" font-weight="700" letter-spacing="0.02em">T</text><text transform="translate(143.83 58.13)" font-size="60" fill="#fff" font-family="Roboto-Bold, Roboto" font-weight="700" letter-spacing="0.02em">S CodeHub</text><path d="M36.73,0A36.73,36.73,0,1,0,73.46,36.73,36.72,36.72,0,0,0,36.73,0Zm-7.9,38.67a4.88,4.88,0,1,1-2,6.62,4.94,4.94,0,0,1-.59-2.35v-.41l-10-9.45a2.26,2.26,0,0,1-.12-3.19l.12-.12,5.64-5.28,4.92-4.6a4.89,4.89,0,1,1,6.54,2.26,5,5,0,0,1-2.16.49,4.2,4.2,0,0,1-.62-.07L21.1,31.42Zm30,5.71L48.74,53.82v.41a4.9,4.9,0,1,1-4.9-4.9h0a4.8,4.8,0,0,1,2.34.63l7.74-7.24-9.46-8.85a6.2,6.2,0,0,1-.62.06,4.9,4.9,0,1,1,5-4.85,4.81,4.81,0,0,1-.51,2.14l4.92,4.61,5.59,5.25a2.25,2.25,0,0,1,0,3.3Z" transform="translate(0)" fill="#fff"/></svg>