<svg xmlns="http://www.w3.org/2000/svg" xmlns:xlink="http://www.w3.org/1999/xlink" viewBox="0 0 120 120"><defs><radialGradient id="radial-gradient" cx="10.11" cy="-344.35" r="79.57" gradientTransform="translate(52.38 319.67) scale(0.75)" gradientUnits="userSpaceOnUse"><stop offset="0.89" stop-color="#e6e6e6"/><stop offset="1" stop-color="#fff"/></radialGradient></defs><g style="isolation:isolate"><g id="Shadow"><g style="mix-blend-mode:multiply"><circle cx="60" cy="60" r="60" fill="url(#radial-gradient)"/></g></g><g id="BackFill"><circle cx="60.16" cy="60.08" r="54.47" fill="#3175a4"/></g><g id="GraphicsIcons"><polygon points="81.09 92.06 65.82 94.5 34.26 100.03 23 39.3 68.9 29.95 77.47 74.48 81.09 92.06" fill="#0e4744" opacity="0.18" style="mix-blend-mode:multiply"/><polygon points="78.38 89.21 63.66 92.9 33.34 99.07 20.85 37.7 66.75 28.36 75.99 73.75 78.38 89.21" fill="#f5f5f5"/><path d="M65.91,54.61,43.59,59.15a.62.62,0,0,1-.73-.48h0a.62.62,0,0,1,.48-.72L65.67,53.4a.62.62,0,0,1,.72.48h0A.62.62,0,0,1,65.91,54.61Z" fill="#a3bbc4"/><path d="M66.58,57.9,44.26,62.45a.61.61,0,0,1-.72-.48h0a.6.6,0,0,1,.48-.72L66.34,56.7a.61.61,0,0,1,.72.48h0A.6.6,0,0,1,66.58,57.9Z" fill="#a3bbc4"/><path d="M58.14,63.06,44.93,65.75a.62.62,0,0,1-.72-.48h0a.62.62,0,0,1,.48-.73l13.2-2.69a.63.63,0,0,1,.73.48h0A.63.63,0,0,1,58.14,63.06Z" fill="#a3bbc4"/><path d="M62.37,73.54l-15.22,3.1a.61.61,0,0,1-.72-.48h0a.6.6,0,0,1,.47-.72l15.22-3.1a.62.62,0,0,1,.73.48h0A.62.62,0,0,1,62.37,73.54Z" fill="#a3bbc4"/><path d="M68.8,68.8,46.48,73.34a.62.62,0,0,1-.73-.48h0a.62.62,0,0,1,.48-.72l22.33-4.55a.62.62,0,0,1,.72.48h0A.62.62,0,0,1,68.8,68.8Z" fill="#a3bbc4"/><path d="M63.85,44.49,41.53,49a.62.62,0,0,1-.73-.47h0a.63.63,0,0,1,.48-.73l22.33-4.54a.61.61,0,0,1,.72.48h0A.61.61,0,0,1,63.85,44.49Z" fill="#a3bbc4"/><path d="M63.18,41.19,40.86,45.74a.63.63,0,0,1-.73-.48h0a.63.63,0,0,1,.48-.73L62.94,40a.61.61,0,0,1,.72.48h0A.61.61,0,0,1,63.18,41.19Z" fill="#a3bbc4"/><path d="M37.76,52.24l-7,1.43-1.43-7,7-1.43Zm-6.37.41,5.35-1.09-1.09-5.34L30.3,47.31Z" fill="#a3bbc4"/><polygon points="33.66 51.07 31.64 50.02 32.14 49.19 33.3 49.79 34.66 47.54 35.53 47.99 33.66 51.07" fill="#c3d82e"/><path d="M43.37,79.82l-7,1.43-1.44-7,7-1.44ZM37,80.23l5.34-1.08L41.27,73.8l-5.35,1.09Z" fill="#a3bbc4"/><polygon points="39.28 78.65 37.26 77.6 37.76 76.77 38.92 77.37 40.28 75.12 41.15 75.57 39.28 78.65" fill="#c3d82e"/><path d="M40.51,65.74l-7,1.43-1.43-7,7-1.43Zm-6.37.42,5.35-1.09L38.4,59.72l-5.34,1.09Z" fill="#a3bbc4"/><polygon points="36.41 64.58 34.39 63.52 34.89 62.69 36.05 63.3 37.41 61.04 38.28 61.49 36.41 64.58" fill="#c3d82e"/><path d="M66.15,74.39a6.2,6.2,0,1,0,7.17,5.06A6.19,6.19,0,0,0,66.15,74.39Zm5.5,5.35a4.52,4.52,0,1,1-5.21-3.69A4.52,4.52,0,0,1,71.65,79.74Z" fill="#d6f2f5" style="mix-blend-mode:multiply"/><path d="M68.72,87.93l-.23,0a7.47,7.47,0,1,1,.23,0ZM65.8,73.66a7.08,7.08,0,1,0,.22,0Z" fill="#d6f2f5" style="mix-blend-mode:multiply"/><polygon points="66.94 83.25 64.11 81.38 64.98 80.22 66.61 81.3 68.97 78.17 70.18 78.97 66.94 83.25" fill="#c3d82e"/><polygon points="92.49 97.68 69.92 93.84 74.54 93.11 66.23 92.25 65.24 92.5 44.02 91.1 51.41 29.78 98 34.56 92.88 79.62 92.49 97.68" fill="#0e4744" opacity="0.18" style="mix-blend-mode:multiply"/><polygon points="89.36 93.94 74.22 93.07 43.44 89.92 49.82 27.61 96.42 32.39 91.69 78.47 89.36 93.94" fill="#fafafa"/><path d="M87.79,57.2,65.13,54.87a.6.6,0,0,1-.55-.67h0a.61.61,0,0,1,.67-.55L87.92,56a.62.62,0,0,1,.54.68h0A.61.61,0,0,1,87.79,57.2Z" fill="#a3bbc4"/><path d="M87.45,60.54,64.78,58.22a.61.61,0,0,1-.54-.67h0a.6.6,0,0,1,.67-.55l22.66,2.32a.62.62,0,0,1,.55.68h0A.61.61,0,0,1,87.45,60.54Z" fill="#a3bbc4"/><path d="M77.85,62.94,64.44,61.57a.62.62,0,0,1-.55-.68h0a.62.62,0,0,1,.68-.54L78,61.72a.61.61,0,0,1,.55.67h0A.61.61,0,0,1,77.85,62.94Z" fill="#a3bbc4"/><path d="M78.76,74.21,63.31,72.63a.62.62,0,0,1-.55-.68h0a.62.62,0,0,1,.67-.55L78.88,73a.61.61,0,0,1,.55.67h0A.62.62,0,0,1,78.76,74.21Z" fill="#a3bbc4"/><path d="M86.31,71.6,63.65,69.28a.62.62,0,0,1-.55-.67h0a.62.62,0,0,1,.68-.55l22.66,2.32a.62.62,0,0,1,.55.67h0A.62.62,0,0,1,86.31,71.6Z" fill="#a3bbc4"/><path d="M88.84,46.93,66.18,44.6a.61.61,0,0,1-.55-.67h0a.62.62,0,0,1,.67-.55L89,45.7a.62.62,0,0,1,.55.68h0A.63.63,0,0,1,88.84,46.93Z" fill="#a3bbc4"/><path d="M89.19,43.58,66.52,41.25a.62.62,0,0,1-.55-.67h0a.62.62,0,0,1,.68-.55l22.66,2.33a.61.61,0,0,1,.55.67h0A.62.62,0,0,1,89.19,43.58Z" fill="#a3bbc4"/><path d="M61.62,46.53l-7.14-.73.73-7.14,7.15.73ZM55.43,45l5.42.56.56-5.43L56,39.6Z" fill="#a3bbc4"/><polygon points="58.07 44.2 56.45 42.59 57.18 41.94 58.1 42.87 60.08 41.12 60.77 41.81 58.07 44.2" fill="#c3d82e"/><path d="M58.75,74.53l-7.14-.73.73-7.14,7.14.73ZM52.56,73l5.42.56.56-5.43-5.43-.55Z" fill="#a3bbc4"/><polygon points="55.2 72.2 53.58 70.59 54.31 69.95 55.23 70.87 57.2 69.13 57.9 69.81 55.2 72.2" fill="#c3d82e"/><path d="M60.22,60.24l-7.14-.73.73-7.14L61,53.1ZM54,58.74l5.43.56L60,53.87l-5.42-.55Z" fill="#a3bbc4"/><polygon points="56.66 57.91 55.04 56.3 55.77 55.66 56.7 56.58 58.67 54.84 59.36 55.52 56.66 57.91" fill="#c3d82e"/><path d="M82.11,76.14a6.2,6.2,0,1,0,5.33,7A6.22,6.22,0,0,0,82.11,76.14Zm3.66,6.75a4.51,4.51,0,1,1-3.88-5.07A4.52,4.52,0,0,1,85.77,82.89Z" fill="#d6f2f5" style="mix-blend-mode:multiply"/><path d="M80.52,89.84l-.23,0a7.49,7.49,0,1,1,.23,0ZM82,75.35a6.58,6.58,0,1,0,.22,0Z" fill="#d6f2f5" style="mix-blend-mode:multiply"/><polygon points="80.23 84.84 78.08 82.21 79.26 81.37 80.49 82.88 83.67 80.6 84.59 81.72 80.23 84.84" fill="#c3d82e"/><polygon points="81.71 86.78 66.59 88.19 43.75 86.84 43.69 87.49 34.56 87.32 35.65 25.56 82.49 25.56 82.43 30.96 81.21 30.83 82 70.91 81.71 86.78" fill="#0e4744" opacity="0.18" style="mix-blend-mode:multiply"/><polygon points="79.95 85.52 64.8 86.2 33.86 86.2 33.86 23.57 80.69 23.57 80.69 69.89 79.95 85.52" fill="#fff"/><path d="M74.64,49.12H51.86a.61.61,0,0,1-.61-.61h0a.61.61,0,0,1,.61-.61H74.64a.61.61,0,0,1,.62.61h0A.61.61,0,0,1,74.64,49.12Z" fill="#a3bbc4"/><path d="M51.86,51.26H74.64a.62.62,0,0,1,.62.61h0a.62.62,0,0,1-.62.62H51.86a.61.61,0,0,1-.61-.62h0a.61.61,0,0,1,.61-.61" fill="#a3bbc4"/><path d="M65.34,55.85H51.86a.61.61,0,0,1-.61-.61h0a.61.61,0,0,1,.61-.61H65.34a.61.61,0,0,1,.61.61h0A.61.61,0,0,1,65.34,55.85Z" fill="#a3bbc4"/><path d="M67.39,67H51.86a.61.61,0,0,1-.61-.61h0a.61.61,0,0,1,.61-.62H67.39a.61.61,0,0,1,.61.62h0A.61.61,0,0,1,67.39,67Z" fill="#a3bbc4"/><path d="M64.44,62.38h10.2a.61.61,0,0,1,.62.61h0a.61.61,0,0,1-.62.61H51.86a.61.61,0,0,1-.61-.61h0a.61.61,0,0,1,.61-.61H64.44" fill="#a3bbc4"/><path d="M74.64,38.8H51.86a.61.61,0,0,1-.61-.62h0a.61.61,0,0,1,.61-.61H74.64a.62.62,0,0,1,.62.61h0A.62.62,0,0,1,74.64,38.8Z" fill="#a3bbc4"/><rect x="51.25" y="34.21" width="24.01" height="1.23" rx="0.61" fill="#a3bbc4"/><path d="M47.52,41.18H40.34V34h7.18Zm-6.31-.86h5.45V34.87H41.21Z" fill="#a3bbc4"/><polygon points="43.75 39.22 41.97 37.79 42.63 37.07 43.65 37.9 45.43 35.96 46.19 36.57 43.75 39.22" fill="#c3d82e"/><path d="M47.52,69.33H40.34V62.15h7.18Zm-6.31-.86h5.45V63H41.21Z" fill="#a3bbc4"/><polygon points="43.75 67.37 41.97 65.94 42.63 65.22 43.65 66.05 45.43 64.11 46.19 64.72 43.75 67.37" fill="#c3d82e"/><path d="M47.52,55H40.34V47.79h7.18Zm-6.31-.87h5.45V48.65H41.21Z" fill="#a3bbc4"/><polygon points="43.75 53.01 41.97 51.57 42.63 50.86 43.65 51.68 45.43 49.74 46.19 50.36 43.75 53.01" fill="#c3d82e"/><path d="M70.93,68.55a6.21,6.21,0,1,0,6,6.39A6.2,6.2,0,0,0,70.93,68.55Zm4.32,6.34a4.51,4.51,0,1,1-4.37-4.65A4.53,4.53,0,0,1,75.25,74.89Z" fill="#d6f2f5" style="mix-blend-mode:multiply"/><path d="M70.74,82.34h-.23a7.37,7.37,0,1,1,.23,0Zm0-14.57a6.76,6.76,0,1,0,.22,0Z" fill="#d6f2f5" style="mix-blend-mode:multiply"/><polygon points="69.94 77.39 67.53 75 68.62 74.04 70 75.41 72.94 72.83 73.96 73.85 69.94 77.39" fill="#c3d82e"/><polygon points="81.54 71.14 88 49.87 87.87 49.83 87.87 49.83 87.75 42.91 87.45 42.82 87.64 41.26 86.99 42.68 86.98 42.67 86.98 42.67 86.7 42.59 82.81 48.3 68.61 95.08 68.14 94.93 65.81 102.58 65.81 102.58 65.31 104.26 67.63 104.97 67.56 105.2 69.21 105.7 69.28 105.47 71.36 106.11 71.87 104.43 71.87 104.43 74.19 96.77 73.8 96.64 81.54 71.14 81.54 71.14" opacity="0.2"/><rect x="50.29" y="69.47" width="53.59" height="5.3" transform="translate(-14.33 124.93) rotate(-73.11)" fill="#18508c"/><rect x="51.73" y="71.29" width="53.59" height="2.54" transform="translate(-13.73 126.61) rotate(-73.11)" fill="#104172"/><rect x="64.4" y="94.78" width="9.75" height="6.33" transform="translate(-44.56 135.79) rotate(-73.12)" fill="#083e66"/><polygon points="87.16 38.68 85.48 42.31 86.67 42.69 87.16 38.68" fill="#333"/><polygon points="87.23 42.39 87.23 42.39 87.23 42.39 87.23 42.39" fill="#e8c27e"/><polygon points="87.23 42.43 87.23 42.39 87.22 42.43 87.23 42.43" fill="#e8c27e"/><polygon points="82.33 45.72 87.39 47.26 87.27 40.33 86.21 40.01 82.33 45.72" fill="#bfbfbf"/><rect x="70.57" y="54.43" width="22.24" height="5.43" transform="translate(3.28 118.72) rotate(-73.11)" fill="#103b5e"/><polygon points="83.2 45.98 86.48 40.09 86.9 40.22 84.84 46.48 83.2 45.98" fill="#e8e8e8"/><rect x="67.23" y="98.61" width="1.75" height="6.33" transform="translate(-49.05 137.39) rotate(-73.12)" fill="#a8b8c6"/><rect x="60.98" y="92.67" width="19.51" height="1.73" transform="matrix(0.29, -0.96, 0.96, 0.29, -39.31, 134.06)" fill="#dbdbdb"/></g></g></svg>