<svg xmlns="http://www.w3.org/2000/svg" xmlns:xlink="http://www.w3.org/1999/xlink" viewBox="0 0 120 120"><defs><radialGradient id="radial-gradient" cx="10.11" cy="-290.54" r="79.57" gradientTransform="translate(52.38 279.1) scale(0.75)" gradientUnits="userSpaceOnUse"><stop offset="0.89" stop-color="#e6e6e6"/><stop offset="1" stop-color="#fff"/></radialGradient></defs><g style="isolation:isolate"><g id="Shadow"><g style="mix-blend-mode:multiply"><circle cx="60" cy="60" r="60" fill="url(#radial-gradient)"/></g></g><g id="BackFill"><circle cx="60.16" cy="60.08" r="54.47" fill="#3175a4"/></g><g id="GraphicsIcons"><path d="M99.68,123.61H79.38L75,105.15l1.16-.22-.5-2.38,1-.19c-.93-1.12-2.13-2.57-2.06-2.57a3.49,3.49,0,0,1-2.47-1,3.68,3.68,0,0,1-.57-.73h0l-.06-.11h0c0-.1-.09-.19-.13-.28-1.11.26-2.34-1.26-2.6-1.67a5.07,5.07,0,0,1-1-2.37v-.12a5.56,5.56,0,0,1,.63-2.1s0-.05,0-.08v0a2,2,0,0,0,.1-.21c-.5-.44-.92-.81-1-.91a3.21,3.21,0,0,1-.54-1.55,5.08,5.08,0,0,1,.25-2.4l-16.85-.56a5.36,5.36,0,0,1,0,1.43c0,.11,0,.24,0,.38h0a1.15,1.15,0,0,1,0,.19s0,0,0,.08v.09a18.44,18.44,0,0,1,0,3.07,3.13,3.13,0,0,1-2.36,2.92h0l-.23.08h0L47.5,94a53.79,53.79,0,0,1-1.57,8.44l.63.12-.5,2.38,1.16.22-4.4,19.46H22.52l5.2-23.21,1.15.22.5-2.37,1.53.29c.36-6.45,1.08-18.77,1.56-20.34.6-1.93,6.85-9.41,9.11-11.48l.06-3.36L39.56,24.83l2.88-.15,0-1.86L68,23.34l15.3-.8.06,1.12,2.91.06v.62h.08v1.37l2.33.08-.85,25.7a13.86,13.86,0,0,1-.31,9.32l-.86,26h-.23a33.15,33.15,0,0,0,1.65,5l3.3,7.73,1.5-.29.5,2.37,1.16-.22Z" opacity="0.11"/><path d="M41.56,66l.3,36.86-14.2-2.43s1.11-22.12,1.77-24.26,8.33-11.17,9.7-12a2.42,2.42,0,0,1,1.23-.28,2.34,2.34,0,0,1,1.17.37L44.18,66Z" fill="#ecb98c"/><path d="M34.83,81.19a8.51,8.51,0,0,1-.15-6c1.07-3.48,2.71-5.21,4-5.84s5,10.24.37,12.09A4.18,4.18,0,0,1,34.83,81.19Z" fill="#d4a477" opacity="0.24"/><path d="M37.87,76.36a4.52,4.52,0,0,1-.18.47c-.66-.2-1.26-.36-1.38-.39-1.21-.26-2.41-.22-3.62-.36A14.85,14.85,0,0,1,37.87,76.36Z" fill="#d4a477"/><path d="M38.7,72.18c0,.06,0,.12,0,.17L37,71.84c.33.08.67.14,1,.2Z" fill="#d4a477"/><path d="M40.28,66.69a.64.64,0,0,0,0,.07l-.49,2.73c-.14.56-.59,2.38-.66,2.78a17.15,17.15,0,0,1-.78,3h0a24.51,24.51,0,0,1-3.24,6l-.11.16-1,1a4.42,4.42,0,0,1,.61-1.23,21.06,21.06,0,0,0,3.3-6c.1-.33.19-.65.26-1h0a17,17,0,0,0,.45-2c0-.31.3-1.37.52-2.24h0c.05-.2.09-.39.14-.56,0,0,.5-2.77.51-2.79a3.26,3.26,0,0,1,.61-1.35,3.22,3.22,0,0,1,1.37-.79l.28.18A2.79,2.79,0,0,0,40.28,66.69Z" fill="#d4a477"/><path d="M47.42,87.85a23,23,0,0,0,0-3.82,10.65,10.65,0,0,0-.07-2.6A21.38,21.38,0,0,0,47,78.8a13.74,13.74,0,0,0-.12-1.46A33,33,0,0,0,45.2,73c1.45.3,2.68-.2,2.92-1.22.21-.87-1.7-3.3-2.94-4.75-.26-.31-2.6-2-2.6-2l1,26.21C46.61,90.6,47.22,89.4,47.42,87.85Z" fill="#dead80"/><path d="M48.08,71.25a1.3,1.3,0,0,1-.48,0,3.26,3.26,0,0,1-1.16-1.33,3.11,3.11,0,0,1,.08-1.25l0,0,.22.26a5.58,5.58,0,0,1,1.28,2.16h0A.8.8,0,0,1,48.08,71.25Z" fill="#f6e2ca"/><path d="M45.2,87.56a29.59,29.59,0,0,1-.14,3.2l-.51.17a24.73,24.73,0,0,0-.42-8.22,37.36,37.36,0,0,1,.37-6c.06-.4.63-4.24.69-4.52a33.25,33.25,0,0,0,.63-4.48l.45.58a36.64,36.64,0,0,1-.6,4c0,.06-.05.32-.11.68A2.25,2.25,0,0,1,45.2,73l.27.63c-.18,1.2-.43,2.87-.48,3.23a39.4,39.4,0,0,0-.37,5.23,13.35,13.35,0,0,0,1.51-.79A2.76,2.76,0,0,0,47,78.8c.08.46.17,1.07.24,1.63a2.13,2.13,0,0,1-.88,1.2,15,15,0,0,1-1.74.9v.11a23.39,23.39,0,0,1,.57,4.44,3.5,3.5,0,0,0,1.15-.9,4.5,4.5,0,0,0,1-2.15c0,.32,0,.75.07,1.22a5.92,5.92,0,0,1-.78,1.21A4.15,4.15,0,0,1,45.2,87.56Z" fill="#d4a477"/><rect x="40.83" y="22.01" width="43.76" height="61.08" transform="translate(1.77 -2.05) rotate(1.9)" fill="#f2f2f2"/><rect x="38.09" y="20.61" width="43.76" height="61.08" transform="translate(-2.59 3.21) rotate(-3)" fill="#e6e6e6"/><rect x="38.82" y="20.23" width="43.76" height="61.08" transform="translate(120.34 102.76) rotate(-178.83)" fill="#f2f2f2"/><rect x="39.5" y="21.31" width="43.76" height="61.08" fill="#fff"/><path d="M77.26,68.32l0,3.6v-.08l.15.13.05,0c.73.63,3.27,2.83,4.64,3.78a4.55,4.55,0,0,1,1.68,2.56l-.18,5.44-8.36-.28.18-17.07V66a13.86,13.86,0,0,0,9-8.19l-.18,5.38a13.83,13.83,0,0,1-7,4.67Z" opacity="0.11"/><path d="M76.29,42.16h-21a.58.58,0,0,1-.57-.57h0a.58.58,0,0,1,.57-.57h21a.57.57,0,0,1,.56.57h0A.57.57,0,0,1,76.29,42.16Z" fill="#a3bbc4"/><path d="M55.26,44.13h21a.56.56,0,0,1,.56.57h0a.56.56,0,0,1-.56.56h-21a.57.57,0,0,1-.57-.56h0a.57.57,0,0,1,.57-.57" fill="#a3bbc4"/><path d="M67.7,48.37H55.26a.57.57,0,0,1-.57-.57h0a.57.57,0,0,1,.57-.56H67.7a.57.57,0,0,1,.57.56h0A.57.57,0,0,1,67.7,48.37Z" fill="#a3bbc4"/><path d="M69.59,58.63H55.26a.57.57,0,0,1-.57-.57h0a.57.57,0,0,1,.57-.56H69.59a.56.56,0,0,1,.57.56h0A.56.56,0,0,1,69.59,58.63Z" fill="#a3bbc4"/><path d="M66.87,54.39h9.42a.56.56,0,0,1,.56.57h0a.56.56,0,0,1-.56.56h-21a.57.57,0,0,1-.57-.56h0a.57.57,0,0,1,.57-.57H66.87" fill="#a3bbc4"/><path d="M76.29,32.63h-21a.58.58,0,0,1-.57-.57h0a.58.58,0,0,1,.57-.57h21a.57.57,0,0,1,.56.57h0A.57.57,0,0,1,76.29,32.63Z" fill="#a3bbc4"/><rect x="54.69" y="28.39" width="22.16" height="1.13" rx="0.57" fill="#a3bbc4"/><path d="M51.26,34.83H44.63V28.2h6.63ZM45.43,34h5V29h-5Z" fill="#a3bbc4"/><polygon points="47.77 33.02 46.13 31.7 46.74 31.04 47.68 31.79 49.33 30.01 50.03 30.57 47.77 33.02" fill="#c3d82e"/><path d="M51.26,60.81H44.63V54.18h6.63ZM45.43,60h5V55h-5Z" fill="#a3bbc4"/><polygon points="47.77 59 46.13 57.68 46.74 57.02 47.68 57.78 49.33 55.99 50.03 56.56 47.77 59" fill="#c3d82e"/><path d="M51.26,47.55H44.63V40.92h6.63Zm-5.83-.8h5v-5h-5Z" fill="#a3bbc4"/><polygon points="47.77 45.74 46.13 44.42 46.74 43.76 47.68 44.52 49.33 42.73 50.03 43.3 47.77 45.74" fill="#c3d82e"/><path d="M72.86,60.09A5.73,5.73,0,1,0,78.41,66,5.73,5.73,0,0,0,72.86,60.09Zm4,5.85a4.17,4.17,0,1,1-4-4.29A4.17,4.17,0,0,1,76.85,65.94Z" fill="#d6f2f5" style="mix-blend-mode:multiply"/><path d="M72.69,72.81h-.22a7,7,0,1,1,.43-14,7,7,0,0,1-.21,14Zm0-13.44a6.23,6.23,0,1,0,.2,0Z" fill="#d6f2f5" style="mix-blend-mode:multiply"/><polygon points="71.95 68.25 69.73 66.04 70.73 65.16 72 66.42 74.71 64.03 75.66 64.98 71.95 68.25" fill="#c3d82e"/><path d="M45.89,72.93c-.06.28-.63,4.13-.68,4.52a39,39,0,0,0-.38,5.07l-.7,0a39,39,0,0,1,.37-5.81c.06-.4.63-4.24.69-4.52.21-.9.84-4.61.57-5.58a3.28,3.28,0,0,0-.47-1,3,3,0,0,1,1.17,1.7C46.73,68.32,46.1,72,45.89,72.93Z" opacity="0.12"/><path d="M41.86,102.85S31.25,86.58,35,81.43a21.17,21.17,0,0,0,4.13-9.16c.07-.4.52-2.22.66-2.78l.49-2.73a.64.64,0,0,1,0-.07,2.81,2.81,0,0,1,3.25-2.19,2.9,2.9,0,0,1,2.23,2.15c.27,1-.36,4.68-.57,5.58-.06.28-.63,4.12-.69,4.52a37.36,37.36,0,0,0-.37,6C46.05,91,41.86,102.85,41.86,102.85Z" fill="#ecb98c"/><path d="M42.94,69.62c.61,0,1.6-.47,2.19-2.83a2.3,2.3,0,0,0-3.92-.89c-.58,2.79.49,3.45,1,3.6A2,2,0,0,0,42.94,69.62Z" fill="#f6e2ca"/><path d="M43.8,69.29a1.51,1.51,0,0,1-.85.33,2.05,2.05,0,0,1-.51-.05h0l-.24-.07a1.44,1.44,0,0,1-.87-.77,6,6,0,0,1,1.26.15A6.33,6.33,0,0,1,43.8,69.29Z" fill="#fff" opacity="0.7"/><path d="M41.21,65.9a2.3,2.3,0,0,1,3.92.89s0,.11-.05.17a2.19,2.19,0,0,0-1.67-1.67,2.22,2.22,0,0,0-2.23.77Z" fill="#fff" opacity="0.7"/><path d="M41.86,102.85s-2.59,0-3.22-.72c.75-1.67,5.19-10,5.46-14.51.11-1.85-.47-4.8-.44-7A40.13,40.13,0,0,1,44,75.92c.05-.39.62-4.23.68-4.52.21-.9.84-4.61.57-5.57a2,2,0,0,0-.1-.32,3.3,3.3,0,0,1,.57,1.14c.27,1-.36,4.68-.57,5.58-.06.28-.63,4.12-.69,4.52a37.36,37.36,0,0,0-.37,6C46.05,91,41.86,102.85,41.86,102.85Z" fill="#d4a477" opacity="0.46"/><polygon points="34.93 97.86 34.04 102.11 25.09 102.11 26.34 96.21 34.93 97.86" fill="#fff"/><polygon points="43.53 99.52 42.98 102.11 34.04 102.11 34.93 97.86 43.53 99.52" fill="#e6e7e8"/><polygon points="34.43 100.24 30 121.17 19.85 121.17 24.68 98.36 34.43 100.24" fill="#32526e"/><polygon points="44.18 102.11 40.19 121.17 30 121.17 34.43 100.24 44.18 102.11" fill="#263e53"/><path d="M71.58,38.87A13.82,13.82,0,0,0,67.77,66v.48l.29,26.82a3.52,3.52,0,0,0,7,0l.29-26.82V66a13.82,13.82,0,0,0-3.81-27.1Zm0,25.22A11.41,11.41,0,1,1,83,52.68,11.41,11.41,0,0,1,71.58,64.09Z" fill="#32526e"/><path d="M83,52.68a11.4,11.4,0,1,1-11.4-11.4A11.4,11.4,0,0,1,83,52.68Z" fill="#8dd8ff" opacity="0.25"/><path d="M69.83,91.89A2.44,2.44,0,0,1,69.62,95a1.2,1.2,0,0,1-.86.36,3.53,3.53,0,0,1-.7-2.07l-.22-20.73v1l1,1a3.77,3.77,0,0,1,.89,4,1.06,1.06,0,0,1-.95.68l.12.12a3.93,3.93,0,0,1,.93,4.21,1.12,1.12,0,0,1-1.13.71h0v.35a5.27,5.27,0,0,1,1.89,3.92,1.71,1.71,0,0,1-1.82,1.9A17.06,17.06,0,0,1,69.83,91.89Z" opacity="0.12"/><polygon points="75.37 68.51 75.35 70.21 67.81 70.21 67.8 68.51 75.37 68.51" fill="#e74b3c"/><polygon points="75.34 71.38 75.32 73.08 67.84 73.08 67.83 71.38 75.34 71.38" fill="#e74b3c"/><path d="M75.33,72.23l0-1.41v-.76l0-.08s3.22,2.84,4.83,4,1.84,3.13,2.18,4.82a40.7,40.7,0,0,0,2.62,10c1.35,3.19,4.31,10.12,6,14.12H76a7.54,7.54,0,0,0-1.28-2.31s-3.23-3.83-3.12-3.83h.13a3.45,3.45,0,0,0,1.77-.55,8.2,8.2,0,0,1-1.65-1.86,4.85,4.85,0,0,1-.5-1h0A19.55,19.55,0,0,1,70,86.63c.13-3.08.43-5.52.43-5.52a5.75,5.75,0,0,0,.15-1c-.27-2.1-1.81-12.13-1.83-12.38a2.52,2.52,0,0,1,2.25-3,2.44,2.44,0,0,1,2.67,1.53s.22.62.46,1.32S75.24,71.55,75.33,72.23Z" fill="#ecb98c"/><path d="M78.14,102.89H76a7.54,7.54,0,0,0-1.28-2.31s-3.23-3.83-3.12-3.83h.13a3.45,3.45,0,0,0,1.77-.55S76.09,98.12,78.14,102.89Z" fill="#d4a477" opacity="0.46"/><path d="M91,102.89H89.23C86.78,96.51,84,89.05,82.73,85c-1-3.14-1.52-10.12-1.22-9.52a13.49,13.49,0,0,1,.87,3.25,40.23,40.23,0,0,0,2.62,10C86.35,92,89.31,98.89,91,102.89Z" fill="#d4a477" opacity="0.46"/><path d="M74.63,85a6.52,6.52,0,0,1-4.36-2.76c.07-.68.12-1.08.12-1.08S70.78,83.79,74.63,85Z" fill="#d4a477" opacity="0.45"/><path d="M65.73,87.72a6.88,6.88,0,0,0-.94,2.84,5.06,5.06,0,0,0,.94,2.37c.31.47,2,2.5,3.18,1.34a2.47,2.47,0,0,0,.21-3.1c-.27-.43-1.09-1.41-1.09-1.41Z" fill="#ecb98c"/><path d="M68,89.76a1.58,1.58,0,0,1-.28,0,25.3,25.3,0,0,1-3.18-2.61A3.43,3.43,0,0,1,64,85.56a7,7,0,0,1,.93-4l3,.43,0,1.92a5.29,5.29,0,0,1,1.9,3.92A1.72,1.72,0,0,1,68,89.76Z" fill="#ecb98c"/><path d="M68,86.83s-1.55-.85-2.07.1,1.82,2.58,1.82,2.58S68.43,89,68,86.83Z" fill="#f6e2ca" opacity="0.79"/><path d="M67.45,94.16c-.08,0-.1-.13-.15-.19-.65-.88-1-1.67-.62-2.1s1.54,0,1.54,0S68.78,93.72,67.45,94.16Z" fill="#f6e2ca" opacity="0.79"/><path d="M68.2,84.16H68a3.9,3.9,0,0,1-1.59-.5,8.8,8.8,0,0,1-1.84-1.23l.19-.41a9.34,9.34,0,0,0,1.65,1.06,3.85,3.85,0,0,0,1.58.5v.35Z" opacity="0.12"/><path d="M68.37,90.17l-.34,0a1,1,0,0,1-.28,0,18.39,18.39,0,0,1-2.34-1.83l.16-.31a15.9,15.9,0,0,0,2.18,1.7,1.58,1.58,0,0,0,.28,0S68.18,89.93,68.37,90.17Z" opacity="0.12"/><path d="M69.1,82.88a1.13,1.13,0,0,1-1.13.71,3.9,3.9,0,0,1-1.59-.5c-.41-.25-3.65-1.69-2.72-4.22a7.49,7.49,0,0,1,4.2-4l0,3.51.27.25A4,4,0,0,1,69.1,82.88Z" fill="#ecb98c"/><path d="M66.84,80.65s-1.26-.24-1.41.37.58,1.57,1.2,2,.7.37.7.37A3.12,3.12,0,0,0,66.84,80.65Z" fill="#f6e2ca" opacity="0.79"/><path d="M65.79,80.68a6.5,6.5,0,0,1-.18,1.19,1.26,1.26,0,0,1-.18-.85A.5.5,0,0,1,65.79,80.68Z" fill="#fff" opacity="0.5"/><path d="M69,77.86a1.11,1.11,0,0,1-1.09.69,4,4,0,0,1-1.52-.48c-.39-.24-3.5-1.62-2.61-4a7.18,7.18,0,0,1,4-3.81l0,3.37.26.24A3.8,3.8,0,0,1,69,77.86Z" fill="#ecb98c"/><path d="M68.43,79a1.19,1.19,0,0,1-.52.09,3.66,3.66,0,0,1-1.52-.48,7.91,7.91,0,0,1-1.86-1.26l.25-.3a8.56,8.56,0,0,0,1.61,1,4,4,0,0,0,1.52.48H68l.13.12Z" opacity="0.12"/><path d="M66.83,75.73s-1.2-.23-1.35.35S66,77.58,66.63,78s.67.36.67.36A3,3,0,0,0,66.83,75.73Z" fill="#f6e2ca" opacity="0.79"/><path d="M67.85,73.58a5.94,5.94,0,0,0-1.68-1,6,6,0,0,1,1.68.63Z" fill="#d4a477"/><path d="M65.82,75.75a6,6,0,0,1-.17,1.15,1.22,1.22,0,0,1-.17-.82A.49.49,0,0,1,65.82,75.75Z" fill="#fff" opacity="0.5"/><path d="M66.34,86.56a3.38,3.38,0,0,1-.27,1.31,1,1,0,0,1-.14-.94A.81.81,0,0,1,66.34,86.56Z" fill="#fff" opacity="0.5"/><path d="M67.07,91.68a4.12,4.12,0,0,1-.43,1.16.92.92,0,0,1,0-1A.69.69,0,0,1,67.07,91.68Z" fill="#fff" opacity="0.5"/><path d="M74.13,96.77a3.53,3.53,0,0,1-1.95.59H72a3.85,3.85,0,0,1-.44-.6h.13a3.45,3.45,0,0,0,1.77-.55A8.27,8.27,0,0,1,74.13,96.77Z" opacity="0.12"/><path d="M76.33,75.9a.84.84,0,0,0,0-.1l1.57-.87-1.61.66c-.1-.45-.27-1.32-.42-2.1a16.21,16.21,0,0,1-.28-3.18v-.16l-.2-.17,0,.08v.76l0,1.41A26.63,26.63,0,0,0,76,76a23.38,23.38,0,0,0,3,4.19C79,80.07,76.43,76.25,76.33,75.9Z" fill="#d4a477"/><path d="M71.33,69.67c-.6,0-1.6-.47-2.18-2.83A2.28,2.28,0,0,1,73.06,66c.58,2.79-.49,3.44-1,3.6A2.46,2.46,0,0,1,71.33,69.67Z" fill="#f6e2ca"/><path d="M70.48,69.34a1.48,1.48,0,0,0,.85.33,1.93,1.93,0,0,0,.5,0h0l.23-.06a1.51,1.51,0,0,0,.88-.77,6.06,6.06,0,0,0-1.27.15A5.81,5.81,0,0,0,70.48,69.34Z" fill="#fff" opacity="0.7"/><path d="M73.06,66a2.28,2.28,0,0,0-3.91.88c0,.06,0,.12,0,.17a2.22,2.22,0,0,1,1.68-1.66,2.19,2.19,0,0,1,2.22.76A.8.8,0,0,0,73.06,66Z" fill="#fff" opacity="0.7"/><polygon points="91.04 102.11 82.09 102.11 81.2 97.86 89.79 96.21 91.04 102.11" fill="#e6e7e8"/><polygon points="82.09 102.11 73.15 102.11 72.61 99.52 81.2 97.86 82.09 102.11" fill="#fff"/><polygon points="96.28 119.17 86.13 119.17 81.7 100.24 91.45 98.36 96.28 119.17" fill="#263e53"/><polygon points="86.13 119.17 75.94 119.17 71.95 102.11 81.7 100.24 86.13 119.17" fill="#32526e"/></g></g></svg>