<svg xmlns="http://www.w3.org/2000/svg" xmlns:xlink="http://www.w3.org/1999/xlink" viewBox="0 0 120 120"><defs><radialGradient id="radial-gradient" cx="10.11" cy="-106.96" r="79.57" gradientTransform="translate(52.38 140.66) scale(0.75)" gradientUnits="userSpaceOnUse"><stop offset="0.89" stop-color="#e6e6e6"/><stop offset="1" stop-color="#fff"/></radialGradient></defs><g style="isolation:isolate"><g id="Shadow"><g style="mix-blend-mode:multiply"><circle cx="60" cy="60" r="60" fill="url(#radial-gradient)"/></g></g><g id="BackFill"><circle cx="60.16" cy="60.08" r="54.47" fill="#3175a4"/></g><g id="GraphicsIcons"><path d="M36.63,55.07,56.48,17a2.84,2.84,0,0,0-1.24-3.83L54.92,13h0a2.84,2.84,0,0,0-3.52,1.32L44.74,27.09,42,25.69a1.62,1.62,0,0,0-2.19.67l-5.06,9.71a1.61,1.61,0,0,0,.7,2.18l2.69,1.41L31.53,52.41a2.88,2.88,0,0,0,5.1,2.66Zm1.3-18.78,3.89-7.46,1.57.82L39.5,37.1Z" fill="#dfdfde" style="mix-blend-mode:multiply"/><path d="M78.06,61h-42a1.85,1.85,0,0,0-1.83,2.14l6.44,41.77a1.84,1.84,0,0,0,1.82,1.55H71.61a1.84,1.84,0,0,0,1.83-1.55l6.45-41.77A1.86,1.86,0,0,0,78.06,61Z" fill="#dfdfde" style="mix-blend-mode:multiply"/><polygon points="70.25 58.15 63.4 53.45 54.28 44.89 54.03 45.14 50.26 41.87 72.33 16.32 92 32.71 90.09 34.96 75.92 51.58 70.25 58.15" fill="#0e4744" opacity="0.18" style="mix-blend-mode:multiply"/><polygon points="69.95 57 63.35 51.98 50.35 41.16 72.27 14.85 91.94 31.25 75.73 50.7 69.95 57" fill="#fff"/><path d="M80.46,39.86l-9.57-8a.34.34,0,0,1,0-.48h0a.33.33,0,0,1,.47,0l9.57,8a.34.34,0,0,1,0,.48h0A.33.33,0,0,1,80.46,39.86Z" fill="#a3bbc4"/><path d="M70.14,32.78l9.57,8a.33.33,0,0,1,0,.47h0a.33.33,0,0,1-.47,0l-9.57-8a.33.33,0,0,1,0-.47h0a.33.33,0,0,1,.47,0" fill="#a3bbc4"/><path d="M74.2,39.43l-5.66-4.72a.33.33,0,0,1-.05-.47h0a.33.33,0,0,1,.47,0l5.66,4.71a.34.34,0,0,1,0,.48h0A.33.33,0,0,1,74.2,39.43Z" fill="#a3bbc4"/><path d="M71.52,44.4,65,39a.33.33,0,0,1,0-.47h0a.33.33,0,0,1,.47,0L72,43.88a.33.33,0,0,1,0,.47h0A.33.33,0,0,1,71.52,44.4Z" fill="#a3bbc4"/><path d="M71.89,41.44,76.17,45a.33.33,0,0,1,0,.47h0a.33.33,0,0,1-.47,0l-9.57-8a.33.33,0,0,1,0-.47h0a.33.33,0,0,1,.47,0l5.29,4.41" fill="#a3bbc4"/><path d="M66.62,50.28l-6.53-5.44a.33.33,0,0,1,0-.47h0a.33.33,0,0,1,.47,0l6.53,5.43a.33.33,0,0,1,0,.47h0A.33.33,0,0,1,66.62,50.28Z" fill="#a3bbc4"/><path d="M67,47.32l4.28,3.57a.33.33,0,0,1,0,.47h0a.33.33,0,0,1-.47,0l-9.57-8a.33.33,0,0,1,0-.47h0a.33.33,0,0,1,.47-.05L67,47.32" fill="#a3bbc4"/><path d="M84.07,35.52l-9.57-8a.33.33,0,0,1,0-.47h0a.33.33,0,0,1,.47,0l9.57,8a.33.33,0,0,1,0,.47h0A.33.33,0,0,1,84.07,35.52Z" fill="#a3bbc4"/><rect x="74.12" y="29.53" width="13.13" height="0.67" rx="0.32" transform="translate(37.82 -44.73) rotate(39.81)" fill="#a3bbc4"/><path d="M71.85,27l-3-2.51,2.52-3,3,2.51ZM69.5,24.46l2.29,1.91,1.91-2.29-2.29-1.91Z" fill="#a3bbc4"/><polygon points="70.95 24.89 70.7 23.67 71.23 23.6 71.37 24.3 72.8 24.11 72.9 24.63 70.95 24.89" fill="#c3d82e"/><path d="M62.48,38.27l-3-2.51,2.51-3,3,2.51ZM60.13,35.7l2.29,1.91,1.91-2.29L62,33.41Z" fill="#a3bbc4"/><polygon points="61.58 36.13 61.34 34.91 61.87 34.84 62 35.54 63.43 35.35 63.53 35.87 61.58 36.13" fill="#c3d82e"/><path d="M57.8,43.9l-3-2.52,2.51-3,3,2.51Zm-2.35-2.58,2.29,1.91,1.91-2.29L57.35,39Z" fill="#a3bbc4"/><polygon points="56.9 41.75 56.65 40.53 57.18 40.46 57.32 41.16 58.75 40.97 58.85 41.49 56.9 41.75" fill="#c3d82e"/><path d="M67.16,32.65l-3-2.51,2.51-3,3,2.51Zm-2.35-2.57L67.1,32,69,29.7l-2.29-1.91Z" fill="#a3bbc4"/><polygon points="66.26 30.51 66.02 29.29 66.55 29.22 66.69 29.92 68.11 29.73 68.22 30.25 66.26 30.51" fill="#c3d82e"/><polygon points="64.8 66.24 57.04 63.28 46.16 57.11 45.98 57.41 41.54 55.12 56.98 25.09 79.96 36.4 78.63 39.03 68.77 58.52 64.8 66.24" fill="#0e4744" opacity="0.18" style="mix-blend-mode:multiply"/><polygon points="64.24 65.19 56.65 61.87 41.47 54.4 56.59 23.68 79.56 34.99 68.38 57.71 64.24 65.19" fill="#fff"/><path d="M70.42,46.06l-11.17-5.5a.34.34,0,0,1-.16-.45h0a.35.35,0,0,1,.45-.15l11.18,5.5a.34.34,0,0,1,.15.45h0A.34.34,0,0,1,70.42,46.06Z" fill="#a3bbc4"/><path d="M58.73,41.61l11.18,5.5a.34.34,0,0,1,.15.45h0a.34.34,0,0,1-.45.15l-11.17-5.5a.34.34,0,0,1-.16-.45h0a.34.34,0,0,1,.45-.15" fill="#a3bbc4"/><path d="M64.23,47.12l-6.61-3.26a.34.34,0,0,1-.15-.45h0a.34.34,0,0,1,.45-.15l6.61,3.25a.34.34,0,0,1,.15.45h0A.34.34,0,0,1,64.23,47.12Z" fill="#a3bbc4"/><path d="M62.8,52.57l-7.62-3.75a.32.32,0,0,1-.15-.44h0a.34.34,0,0,1,.45-.16L63.09,52a.34.34,0,0,1,.16.45h0A.33.33,0,0,1,62.8,52.57Z" fill="#a3bbc4"/><path d="M62.46,49.61l5,2.46a.34.34,0,0,1,.16.45h0a.33.33,0,0,1-.45.15L56,47.17a.33.33,0,0,1-.15-.44h0a.34.34,0,0,1,.45-.16l6.17,3" fill="#a3bbc4"/><path d="M59.42,59.44,51.8,55.69a.34.34,0,0,1-.15-.45h0a.34.34,0,0,1,.45-.15l7.62,3.75a.34.34,0,0,1,.15.45h0A.34.34,0,0,1,59.42,59.44Z" fill="#a3bbc4"/><path d="M59.08,56.48l5,2.46a.34.34,0,0,1,.16.45h0a.34.34,0,0,1-.45.15L52.61,54a.34.34,0,0,1-.15-.45h0a.34.34,0,0,1,.45-.15l6.17,3" fill="#a3bbc4"/><path d="M72.91,41,61.74,35.5a.33.33,0,0,1-.15-.45h0A.32.32,0,0,1,62,34.9l11.17,5.49a.33.33,0,0,1,.15.45h0A.34.34,0,0,1,72.91,41Z" fill="#a3bbc4"/><rect x="61.72" y="35.96" width="13.13" height="0.67" rx="0.32" transform="translate(23.04 -26.42) rotate(26.2)" fill="#a3bbc4"/><path d="M59,35.62l-3.52-1.73,1.73-3.52,3.52,1.73Zm-2.89-1.95L58.82,35l1.32-2.68L57.46,31Z" fill="#a3bbc4"/><polygon points="57.66 33.75 57.13 32.62 57.63 32.42 57.93 33.07 59.27 32.55 59.5 33.04 57.66 33.75" fill="#c3d82e"/><path d="M52.58,48.75,49.05,47l1.74-3.53,3.52,1.74Zm-2.89-2,2.67,1.32,1.32-2.68L51,44.13Z" fill="#a3bbc4"/><polygon points="51.2 46.88 50.67 45.74 51.17 45.55 51.47 46.2 52.81 45.68 53.03 46.17 51.2 46.88" fill="#c3d82e"/><path d="M49.35,55.31l-3.53-1.73,1.74-3.52,3.52,1.73Zm-2.89-1.94,2.67,1.31L50.45,52l-2.68-1.32Z" fill="#a3bbc4"/><polygon points="47.97 53.44 47.44 52.31 47.94 52.12 48.24 52.77 49.58 52.25 49.8 52.73 47.97 53.44" fill="#c3d82e"/><path d="M55.81,42.18l-3.52-1.73L54,36.93l3.52,1.73Zm-2.89-1.94,2.67,1.31,1.32-2.67-2.68-1.32Z" fill="#a3bbc4"/><polygon points="54.43 40.31 53.9 39.18 54.4 38.99 54.7 39.64 56.04 39.12 56.27 39.6 54.43 40.31" fill="#c3d82e"/><path d="M53.39,11.33l-.31-.14h0a2.83,2.83,0,0,0-3.53,1.32L42.89,25.25l-2.7-1.41a1.61,1.61,0,0,0-2.19.68l-5.06,9.7a1.61,1.61,0,0,0,.7,2.18l2.7,1.41L29.68,50.56a2.88,2.88,0,0,0,5.1,2.66l19.86-38A2.86,2.86,0,0,0,53.39,11.33ZM36.08,34.44,40,27l1.57.82-3.89,7.46Z" fill="#cee2f2"/><path d="M78,61.32l-6.45,41.77a1.83,1.83,0,0,1-1.83,1.55H40.64a1.84,1.84,0,0,1-1.82-1.55L32.38,61.32a1.86,1.86,0,0,1,1.83-2.14h42A1.86,1.86,0,0,1,78,61.32Z" fill="#cee2f2"/><polygon points="67.67 100.23 64.98 100.23 69.33 63.6 73.22 63.6 67.67 100.23" fill="#666"/><polygon points="62.11 100.23 59.42 100.23 61.3 63.6 65.19 63.6 62.11 100.23" fill="#666"/><polygon points="56.55 100.23 53.87 100.23 53.27 63.6 57.15 63.6 56.55 100.23" fill="#666"/><polygon points="50.99 100.23 48.31 100.23 45.23 63.6 49.12 63.6 50.99 100.23" fill="#4d4d4d"/><polygon points="45.44 100.23 42.75 100.23 37.2 63.6 41.08 63.6 45.44 100.23" fill="#4d4d4d"/></g></g></svg>