<svg id="Layer_1" data-name="Layer 1" xmlns="http://www.w3.org/2000/svg" viewBox="0 0 260.39 289.35"><path d="M264.07,489l-15.59-9-33.77-19.5c-4.28-2.47-7.79-8.55-7.79-13.5V361.45c0-4.95-3.51-11-7.79-13.5l-15.9-9.18c-4.29-2.47-7.79-.45-7.79,4.5V465.15c0,5,3.5,11,7.79,13.5l49.51,28.58,15.59,9,40.45,23.36c4.29,2.48,7.8.45,7.8-4.5V516.74c0-4.95-3.51-11-7.8-13.5Z" transform="translate(-175.44 -251.29)" fill="#fff"/><path d="M410.7,385.24c-3.5,3.5-6.36,8-6.36,10.06V447c0,4.95-3.51,11-7.8,13.5L362.78,480l-15.59,9-24.71,14.27c-4.29,2.47-7.8,8.55-7.8,13.5v18.35c0,4.95,3.51,7,7.8,4.5l40.45-23.36,15.59-9L428,478.65c4.29-2.47,7.79-8.55,7.79-13.5v-96c0-4.95-2.86-6.13-6.36-2.63Z" transform="translate(-175.44 -251.29)" fill="#fff"/><path d="M248.48,318l15.59-9,33.77-19.5c4.28-2.47,11.3-2.47,15.58,0L347.19,309l13.44,7.76c3.11,1.8,8.52.4,12-3.1L383,303.34c3.5-3.5,2.85-8.39-1.43-10.86l-3-1.75-15.59-9-49.51-28.58c-4.28-2.48-11.3-2.48-15.58,0l-49.51,28.58-15.59,9-40.46,23.36c-4.28,2.47-4.28,6.52,0,9l15.9,9.18a17.33,17.33,0,0,0,15.59,0Z" transform="translate(-175.44 -251.29)" fill="#fff"/><path d="M429.46,340.91a25,25,0,0,0,6.36-15.36V284.94c0-4.95-2.86-6.14-6.36-2.64L313.7,398.12a9,9,0,0,1-12.72,0L284.4,381.55a9,9,0,0,0-12.73,0L255.1,398.12a9,9,0,0,0,0,12.73l16.57,16.57,12.73,12.73L301,456.73a9,9,0,0,0,12.72,0l16.58-16.58L343,427.42Z" transform="translate(-175.44 -251.29)" fill="#fff"/></svg>